<?xml version="1.0" encoding="UTF-8" standalone="no"?>
<!-- Generator: Gravit.io -->
<svg xmlns="http://www.w3.org/2000/svg" xmlns:xlink="http://www.w3.org/1999/xlink" style="isolation:isolate" viewBox="0 0 1000 274.133" width="1000pt" height="274.133pt"><defs><clipPath id="_clipPath_Y9cScNZ69uNuf6ad9CKvdjWfsXFBmUxR"><rect width="1000" height="274.133"/></clipPath></defs><g clip-path="url(#_clipPath_Y9cScNZ69uNuf6ad9CKvdjWfsXFBmUxR)"><g><g><path d=" M 0 246.017 L 0 77.319 L 267.104 77.319 L 267.104 246.017 C 267.104 261.551 254.522 274.133 238.988 274.133 L 28.116 274.133 C 12.582 274.133 0 261.551 0 246.017 Z " fill="rgb(187,222,251)"/><path d=" M 267.104 49.203 L 267.104 91.378 L 0 91.378 L 0 49.203 C 0 33.669 12.582 21.087 28.116 21.087 L 238.988 21.087 C 254.522 21.087 267.104 33.669 267.104 49.203 Z " fill="rgb(33,150,243)"/><path d=" M 217.9 49.203 C 217.898 56.74 213.875 63.702 207.347 67.468 C 200.819 71.234 192.778 71.231 186.253 67.461 C 179.728 63.691 175.71 56.725 175.712 49.189 C 175.716 37.539 185.163 28.098 196.813 28.102 C 208.463 28.106 217.904 37.553 217.9 49.203 M 91.378 49.203 C 91.375 56.74 87.352 63.702 80.824 67.468 C 74.297 71.234 66.256 71.231 59.73 67.461 C 53.205 63.691 49.187 56.725 49.189 49.189 C 49.193 37.539 58.64 28.098 70.29 28.102 C 81.94 28.106 91.381 37.553 91.378 49.203" fill="rgb(21,101,192)"/><path d=" M 196.813 0 C 189.049 0 182.755 6.294 182.755 14.058 L 182.755 49.203 C 182.755 56.967 189.049 63.261 196.813 63.261 C 204.577 63.261 210.871 56.967 210.871 49.203 L 210.871 14.058 C 210.871 6.294 204.577 0 196.813 0 Z  M 70.29 0 C 62.526 0 56.232 6.294 56.232 14.058 L 56.232 49.203 C 56.232 56.967 62.526 63.261 70.29 63.261 C 78.055 63.261 84.349 56.967 84.349 49.203 L 84.349 14.058 C 84.349 6.294 78.055 0 70.29 0 Z " fill="rgb(176,190,197)"/></g><g clip-path="url(#_clipPath_ZE8yuX27GnxLFyjHA1jAV68qRdKch5Zg)"><text transform="matrix(1.508,0,0,1.508,46.976,228.207)" style="font-family:'Nunito';font-weight:900;font-size:94px;font-style:normal;fill:#1565c0;stroke:none;">31</text></g><defs><clipPath id="_clipPath_ZE8yuX27GnxLFyjHA1jAV68qRdKch5Zg"><rect x="0" y="0" width="125" height="100" transform="matrix(1.508,0,0,1.508,39.283,106.146)"/></clipPath></defs></g><g clip-path="url(#_clipPath_KsjJR86fE28v1ZuXUJ36fr818aRQO2ZP)"><text transform="matrix(0.754,0,0,0.754,310.4,186.689)" style="font-family:'Nunito';font-weight:800;font-size:200px;font-style:normal;fill:#000000;stroke:none;">Schedule</text></g><defs><clipPath id="_clipPath_KsjJR86fE28v1ZuXUJ36fr818aRQO2ZP"><rect x="0" y="0" width="971.821" height="363.5" transform="matrix(0.754,0,0,0.754,267.104,0)"/></clipPath></defs></g></svg>